<svg width="1450" height="64" viewBox="0 0 1450 64" fill="none" xmlns="http://www.w3.org/2000/svg">
<path fill-rule="evenodd" clip-rule="evenodd" d="M1248.23 31.4452C1248.23 48.6931 1234.25 62.6752 1217 62.6752C1199.75 62.6752 1185.77 48.6931 1185.77 31.4452C1185.77 14.1975 1199.75 0.215332 1217 0.215332C1234.25 0.215332 1248.23 14.1975 1248.23 31.4452ZM1224.09 13.1466C1225.58 12.0829 1227.22 13.079 1226.74 14.7636L1222.05 31.4452H1230.37C1232.11 31.4452 1232.37 33.7434 1230.75 34.8969L1209.91 49.7439C1208.42 50.8076 1206.78 49.8116 1207.26 48.127L1211.1 34.4778L1219.81 31.4028H1209.12V31.4452H1203.63C1201.88 31.4452 1201.63 29.1472 1203.25 27.9937L1224.09 13.1466ZM89.3053 31.4928C89.3053 40.811 96.7841 48.4481 106.584 48.4481V48.4466C116.385 48.4466 123.929 40.811 123.929 31.4928C123.929 22.3039 116.45 14.6029 106.584 14.6029C96.8494 14.6029 89.3053 22.2384 89.3053 31.4928ZM51.5957 53.9471C54.4968 59.9014 60.2353 63.2014 67.7141 63.2014C78.094 63.2014 85.8324 55.8248 85.8324 44.4354V31.4928C85.8324 21.8501 78.4809 14.6684 68.4879 14.6684C58.6876 14.6684 51.2088 22.2384 51.2088 31.4928C51.2088 41.006 58.3644 47.9943 67.3272 47.9943C71.8412 47.9943 74.935 46.3116 76.6753 44.111V44.6943C76.6753 50.9715 73.002 54.7892 67.5851 54.7892C63.2654 54.7892 60.6222 52.5887 59.2035 49.8065L51.5957 53.9471ZM64.4151 38.3563C61.915 37.0248 60.2353 34.4325 60.2353 31.2994C60.2353 27.2892 62.9835 24.2169 66.6828 23.499C67.2231 23.3941 67.7837 23.3395 68.359 23.3395C72.9367 23.3395 76.5479 26.7034 76.5479 31.2994C76.5479 33.651 75.6012 35.698 74.0628 37.1358C75.6005 35.6982 76.5464 33.6514 76.5464 31.2994L64.4151 38.3563ZM14.6864 31.4928C14.6864 40.811 22.1652 48.4481 31.9655 48.4481V48.4466C41.7659 48.4466 49.31 40.811 49.31 31.4928C49.31 22.3039 41.8296 14.6029 31.9655 14.6029C22.2289 14.6029 14.6864 22.2384 14.6864 31.4928ZM32.625 39.8146C32.4081 39.8311 32.1882 39.8395 31.9655 39.8395C27.2588 39.8395 23.8419 36.0872 23.8419 31.5567L23.8419 31.5567C23.8419 36.0871 27.2589 39.8394 31.9656 39.8394C32.1882 39.8394 32.4081 39.831 32.625 39.8146ZM9.92841 0.819624H0.772949V47.606H9.92841V0.819624ZM127.053 13.7136C127.782 12.9824 128.191 11.9907 128.191 10.9567C128.191 9.92263 127.782 8.93093 127.053 8.19976C126.325 7.46858 125.337 7.05781 124.306 7.05781C123.276 7.05781 122.288 7.46858 121.56 8.19976C120.831 8.93093 120.422 9.92263 120.422 10.9567C120.422 11.9907 120.831 12.9824 121.56 13.7136C122.288 14.4448 123.276 14.8555 124.306 14.8555C125.337 14.8555 126.325 14.4448 127.053 13.7136ZM239.063 12.2673V54.5741H227.737V12.2673H239.063ZM268.794 12.2673H244.726V54.5741H256.052V40.4719H268.794C276.613 40.4719 282.951 34.1581 282.951 26.3696C282.951 18.5811 276.613 12.2673 268.794 12.2673ZM268.794 29.19H256.052V23.5491H268.794C270.357 23.5491 271.625 24.8119 271.625 26.3696C271.625 27.9273 270.357 29.19 268.794 29.19ZM325.424 12.2673V34.1258C325.424 39.1883 329.544 43.2923 334.626 43.2923C339.709 43.2923 343.829 39.1883 343.829 34.1258V12.2673H355.155V34.1258C355.155 45.4192 345.964 54.5741 334.626 54.5741C323.289 54.5741 314.098 45.4192 314.098 34.1258V12.2673H325.424ZM307.019 12.2673C296.072 12.2673 287.198 21.1066 287.198 32.0105V33.4207C287.198 38.8727 282.761 43.2923 277.288 43.2923H275.872V54.5741H277.288C289.017 54.5741 298.524 45.1034 298.524 33.4207V32.0105C298.524 27.3375 302.328 23.5491 307.019 23.5491H309.85V12.2673H307.019ZM418.864 13.6775C418.864 16.0141 416.963 17.9082 414.616 17.9082C412.271 17.9082 410.369 16.0141 410.369 13.6775C410.369 11.341 412.271 9.44686 414.616 9.44686C416.963 9.44686 418.864 11.341 418.864 13.6775ZM372.721 32.0309L367.316 54.5741H355.672L364.17 19.1261C366.191 10.6962 378.118 10.3842 380.58 18.6967L384.886 33.2327L389.192 18.6967C391.655 10.3841 403.58 10.6963 405.601 19.1261L414.099 54.5741H402.455L397.05 32.0309L393.033 45.593C390.637 53.6819 379.134 53.6819 376.739 45.593L372.721 32.0309ZM535.377 41.036C533.877 41.036 532.439 40.4417 531.378 39.3838C530.317 38.3259 529.721 36.8911 529.721 35.3951V9.4469H518.409V35.3951C518.409 44.7409 526.006 52.3178 535.377 52.3178H547.82V41.036H535.377ZM569.313 20.7287C567.976 20.7287 566.652 20.9913 565.417 21.5016C564.182 22.0119 563.06 22.7598 562.114 23.7026C561.169 24.6455 560.419 25.7648 559.907 26.9967C559.396 28.2286 559.132 29.549 559.132 30.8824C559.132 32.2157 559.396 33.5361 559.907 34.768C560.419 35.9999 561.169 37.1192 562.114 38.0621C563.06 39.0049 564.182 39.7528 565.417 40.2631C566.652 40.7734 567.976 41.036 569.313 41.036C572.013 41.036 574.603 39.9662 576.512 38.0621C578.421 36.1579 579.494 33.5753 579.494 30.8824C579.494 28.1894 578.421 25.6068 576.512 23.7026C574.603 21.7985 572.013 20.7287 569.313 20.7287ZM547.82 30.8824C547.82 19.0443 557.444 9.4469 569.313 9.4469C581.183 9.4469 590.806 19.0443 590.806 30.8824C590.806 42.7204 581.183 52.3178 569.313 52.3178C557.444 52.3178 547.82 42.7204 547.82 30.8824ZM691.483 20.7287C688.783 20.7287 686.193 21.7985 684.284 23.7026C682.374 25.6068 681.302 28.1894 681.302 30.8824C681.302 33.5753 682.374 36.1579 684.284 38.0621C686.193 39.9662 688.783 41.036 691.483 41.036C694.183 41.036 696.772 39.9662 698.682 38.0621C700.591 36.1579 701.663 33.5753 701.663 30.8824C701.663 28.1894 700.591 25.6068 698.682 23.7026C696.772 21.7985 694.183 20.7287 691.483 20.7287ZM669.99 30.8824C669.99 19.0443 679.613 9.4469 691.483 9.4469C703.352 9.4469 712.975 19.0443 712.975 30.8824C712.975 42.7204 703.352 52.3178 691.483 52.3178C679.613 52.3178 669.99 42.7204 669.99 30.8824ZM614.561 9.4469C602.692 9.4469 593.068 19.0443 593.068 30.8824C593.068 42.7204 602.692 52.3178 614.561 52.3178H646.235C648.462 52.3178 650.61 51.9794 652.63 51.3521L658.678 54.5742L665.203 42.3853C666.86 39.2824 667.727 35.8207 667.727 32.305V30.8824C667.727 19.0443 658.104 9.4469 646.235 9.4469H614.561ZM653.434 23.7026C651.524 21.7985 648.935 20.7287 646.235 20.7287H614.561C613.224 20.7287 611.9 20.9913 610.665 21.5016C609.43 22.0119 608.308 22.7598 607.362 23.7026C606.417 24.6455 605.667 25.7648 605.155 26.9967C604.644 28.2286 604.38 29.549 604.38 30.8824C604.38 32.2157 604.644 33.5361 605.155 34.768C605.667 35.9999 606.417 37.1192 607.362 38.0621C608.308 39.0049 609.43 39.7528 610.665 40.2631C611.9 40.7734 613.224 41.036 614.561 41.036H646.235C648.921 41.0361 651.499 39.9772 653.406 38.09C655.313 36.2029 656.395 33.6405 656.416 30.9613V30.8824C656.416 28.1894 655.343 25.6068 653.434 23.7026ZM716.672 14.2617C717.202 13.7327 717.5 13.0153 717.5 12.2673C717.5 11.5193 717.202 10.8019 716.672 10.273C716.142 9.74401 715.422 9.44686 714.672 9.44686C713.922 9.44686 713.203 9.74401 712.673 10.273C712.142 10.8019 711.844 11.5193 711.844 12.2673C711.844 13.0153 712.142 13.7327 712.673 14.2617C713.203 14.7906 713.922 15.0878 714.672 15.0878C715.422 15.0878 716.142 14.7906 716.672 14.2617ZM850.965 20.9747C848.782 19.5163 846.216 18.7378 843.591 18.7378V5.46508C848.841 5.46508 853.974 7.02194 858.339 9.9388C862.704 12.8556 866.107 17.0015 868.116 21.852C870.125 26.7025 870.651 32.04 869.626 37.1893C868.602 42.3386 866.074 47.0686 862.362 50.781C858.649 54.4935 853.919 57.0217 848.77 58.0459C843.621 59.0702 838.283 58.5444 833.433 56.5354C828.582 54.5261 824.436 51.1238 821.519 46.7584C818.603 42.393 817.046 37.2607 817.046 32.0105V18.7378C818.789 18.7378 820.515 18.3945 822.125 17.7275C823.735 17.0605 825.198 16.0828 826.431 14.8503C827.663 13.6178 828.641 12.1547 829.308 10.5443C829.975 8.93402 830.318 7.20808 830.318 5.46509L843.591 5.46508C843.591 8.95107 842.904 12.4029 841.57 15.6236C840.236 18.8443 838.281 21.7706 835.816 24.2355C833.351 26.7005 830.425 28.6559 827.204 29.9899C823.988 31.3221 820.541 32.0087 817.06 32.0105H830.318C830.318 34.6356 831.097 37.2018 832.555 39.3845C834.014 41.5672 836.087 43.2683 838.512 44.2729C840.937 45.2776 843.606 45.5404 846.18 45.0282C848.755 44.5161 851.12 43.252 852.976 41.3958C854.833 39.5395 856.097 37.1746 856.609 34.5999C857.121 32.0253 856.858 29.3565 855.854 26.9313C854.849 24.506 853.148 22.4331 850.965 20.9747ZM983.776 24.6475H977.336V45.1038H983.776V24.6475ZM980.578 21.8273C979.568 21.8273 978.726 21.4905 978.053 20.8171C977.407 20.1156 977.084 19.2737 977.084 18.2916C977.084 17.2814 977.407 16.4396 978.053 15.7661C978.726 15.0927 979.568 14.7559 980.578 14.7559C981.588 14.7559 982.416 15.0927 983.061 15.7661C983.707 16.4396 984.03 17.2814 984.03 18.2916C984.03 19.2737 983.707 20.1156 983.061 20.8171C982.416 21.4905 981.588 21.8273 980.578 21.8273ZM884.944 45.1038V15.3873H891.552V39.2953H904.727V45.1038H884.944ZM910.903 44.1778C912.615 45.1038 914.523 45.5668 916.627 45.5668C918.76 45.5668 920.668 45.1038 922.352 44.1778C924.035 43.2237 925.368 41.933 926.351 40.3053C927.333 38.6778 927.824 36.8539 927.824 34.8335C927.824 32.8131 927.333 31.0033 926.351 29.4038C925.368 27.7763 924.035 26.4994 922.352 25.5734C920.668 24.6475 918.76 24.1844 916.627 24.1844C914.495 24.1844 912.587 24.6614 910.903 25.6156C909.219 26.5415 907.887 27.8043 906.904 29.4038C905.922 31.0033 905.431 32.8131 905.431 34.8335C905.431 36.8539 905.922 38.6778 906.904 40.3053C907.887 41.933 909.219 43.2237 910.903 44.1778ZM919.069 39.1268C918.367 39.5197 917.553 39.7162 916.627 39.7162C915.73 39.7162 914.93 39.5197 914.228 39.1268C913.527 38.706 912.98 38.1307 912.587 37.4011C912.194 36.6435 911.997 35.8016 911.997 34.8756C911.997 33.9215 912.194 33.0798 912.587 32.3502C912.98 31.6206 913.527 31.0594 914.228 30.6665C914.93 30.2455 915.73 30.0352 916.627 30.0352C917.553 30.0352 918.353 30.2455 919.027 30.6665C919.728 31.0594 920.275 31.6206 920.668 32.3502C921.061 33.0517 921.258 33.8795 921.258 34.8335C921.258 35.7876 921.061 36.6435 920.668 37.4011C920.303 38.1307 919.77 38.706 919.069 39.1268ZM932.924 53.1011C934.636 53.8867 936.614 54.2795 938.859 54.2795C941.048 54.2795 942.998 53.8446 944.71 52.9747C946.421 52.1048 947.768 50.8983 948.75 49.355C949.732 47.8116 950.224 45.9877 950.224 43.883V24.6474H943.91V26.0218C943.44 25.6265 942.907 25.2947 942.31 25.0262C941.216 24.493 939.967 24.2264 938.564 24.2264C936.684 24.2264 935.015 24.6754 933.555 25.5733C932.096 26.4432 930.946 27.6498 930.104 29.1932C929.262 30.7085 928.841 32.4202 928.841 34.3284C928.841 36.2085 929.262 37.9201 930.104 39.4635C930.946 41.0068 932.096 42.2275 933.555 43.1254C935.015 44.0233 936.684 44.4723 938.564 44.4723C939.939 44.4723 941.188 44.2058 942.31 43.6726C942.854 43.4144 943.345 43.11 943.784 42.7595V44.0514C943.784 45.4825 943.321 46.5909 942.395 47.3767C941.497 48.1624 940.248 48.5551 938.648 48.5551C937.358 48.5551 936.249 48.3307 935.323 47.8817C934.425 47.4328 933.612 46.7733 932.882 45.9034L928.925 49.86C929.907 51.263 931.24 52.3435 932.924 53.1011ZM942.1 38.1586C941.454 38.5515 940.683 38.7479 939.785 38.7479C938.887 38.7479 938.101 38.5515 937.428 38.1586C936.782 37.7657 936.277 37.2326 935.913 36.5591C935.548 35.8577 935.365 35.114 935.365 34.3284C935.365 33.4865 935.548 32.7289 935.913 32.0554C936.277 31.382 936.796 30.8488 937.47 30.4559C938.143 30.0631 938.915 29.8666 939.785 29.8666C940.683 29.8666 941.454 30.0631 942.1 30.4559C942.773 30.8488 943.278 31.382 943.615 32.0554C943.98 32.7289 944.162 33.4865 944.162 34.3284C944.162 35.1701 943.98 35.9277 943.615 36.6012C943.278 37.2467 942.773 37.7657 942.1 38.1586ZM958.052 44.1778C959.763 45.1038 961.672 45.5668 963.777 45.5668C965.909 45.5668 967.817 45.1038 969.5 44.1778C971.184 43.2237 972.517 41.933 973.499 40.3053C974.481 38.6778 974.972 36.8539 974.972 34.8335C974.972 32.8131 974.481 31.0033 973.499 29.4038C972.517 27.7763 971.184 26.4994 969.5 25.5734C967.817 24.6475 965.909 24.1844 963.777 24.1844C961.644 24.1844 959.735 24.6614 958.052 25.6156C956.368 26.5415 955.036 27.8043 954.053 29.4038C953.071 31.0033 952.58 32.8131 952.58 34.8335C952.58 36.8539 953.071 38.6778 954.053 40.3053C955.036 41.933 956.368 43.2237 958.052 44.1778ZM966.218 39.1268C965.516 39.5197 964.702 39.7162 963.777 39.7162C962.878 39.7162 962.078 39.5197 961.377 39.1268C960.675 38.706 960.128 38.1307 959.735 37.4011C959.343 36.6435 959.146 35.8016 959.146 34.8756C959.146 33.9215 959.343 33.0798 959.735 32.3502C960.128 31.6206 960.675 31.0594 961.377 30.6665C962.078 30.2455 962.878 30.0352 963.777 30.0352C964.702 30.0352 965.502 30.2455 966.175 30.6665C966.877 31.0594 967.424 31.6206 967.817 32.3502C968.21 33.0517 968.406 33.8795 968.406 34.8335C968.406 35.7876 968.21 36.6435 967.817 37.4011C967.452 38.1307 966.919 38.706 966.218 39.1268ZM999.255 45.5246C997.881 45.5246 996.618 45.2581 995.467 44.7249C994.862 44.4443 994.315 44.1093 993.826 43.7199V53.7324H987.47V24.6474H993.91V26.0592C994.377 25.6771 994.896 25.3467 995.467 25.0683C996.618 24.507 997.881 24.2264 999.255 24.2264C1001.19 24.2264 1002.9 24.6895 1004.39 25.6155C1005.91 26.5414 1007.08 27.8042 1007.93 29.4037C1008.8 31.0032 1009.23 32.8271 1009.23 34.8755C1009.23 36.924 1008.8 38.7479 1007.93 40.3474C1007.08 41.9469 1005.91 43.2096 1004.39 44.1356C1002.9 45.0616 1001.19 45.5246 999.255 45.5246ZM998.078 39.716C999.003 39.716 999.803 39.5055 1000.48 39.0847C1001.18 38.6638 1001.72 38.0884 1002.12 37.3589C1002.51 36.6293 1002.71 35.8015 1002.71 34.8755C1002.71 33.9214 1002.51 33.0797 1002.12 32.3501C1001.72 31.6205 1001.18 31.0593 1000.48 30.6664C999.803 30.2454 999.017 30.035 998.119 30.035C997.222 30.035 996.421 30.2454 995.72 30.6664C995.046 31.0593 994.514 31.6205 994.121 32.3501C993.728 33.0797 993.532 33.9214 993.532 34.8755C993.532 35.8015 993.714 36.6293 994.079 37.3589C994.471 38.0884 995.018 38.6638 995.72 39.0847C996.421 39.5055 997.207 39.716 998.078 39.716ZM1019.11 45.6089C1017.9 45.6089 1016.71 45.4546 1015.53 45.1459C1014.38 44.8372 1013.3 44.4022 1012.29 43.8411C1011.31 43.2519 1010.47 42.5783 1009.77 41.8207L1013.43 38.1167C1014.1 38.8463 1014.9 39.4215 1015.83 39.8424C1016.75 40.2353 1017.76 40.4317 1018.86 40.4317C1019.62 40.4317 1020.19 40.3194 1020.58 40.095C1021 39.8704 1021.22 39.5618 1021.22 39.1689C1021.22 38.6639 1020.96 38.2851 1020.46 38.0325C1019.98 37.7519 1019.36 37.5134 1018.61 37.317C1017.85 37.0924 1017.05 36.8539 1016.21 36.6013C1015.37 36.3489 1014.57 35.9981 1013.81 35.5491C1013.05 35.1002 1012.43 34.4827 1011.96 33.6971C1011.48 32.8834 1011.24 31.8591 1011.24 30.6245C1011.24 29.3056 1011.58 28.169 1012.25 27.215C1012.92 26.2329 1013.88 25.4613 1015.11 24.9C1016.35 24.3388 1017.79 24.0582 1019.45 24.0582C1021.19 24.0582 1022.79 24.3669 1024.25 24.9842C1025.73 25.5734 1026.94 26.4574 1027.87 27.636L1024.2 31.34C1023.56 30.5824 1022.83 30.0491 1022.01 29.7405C1021.23 29.4318 1020.46 29.2776 1019.7 29.2776C1018.97 29.2776 1018.42 29.3897 1018.06 29.6142C1017.69 29.8106 1017.51 30.1052 1017.51 30.4981C1017.51 30.919 1017.75 31.2557 1018.23 31.5083C1018.7 31.7609 1019.32 31.9853 1020.08 32.1818C1020.84 32.3782 1021.64 32.6167 1022.48 32.8973C1023.32 33.1779 1024.12 33.5568 1024.88 34.0338C1025.64 34.5109 1026.25 35.1563 1026.73 35.9701C1027.21 36.7557 1027.44 37.794 1027.44 39.0848C1027.44 41.0771 1026.69 42.6626 1025.17 43.8411C1023.68 45.0197 1021.66 45.6089 1019.11 45.6089ZM1039.19 45.5667C1037.31 45.5667 1035.64 45.1879 1034.18 44.4303C1032.75 43.6446 1031.63 42.5783 1030.81 41.2313C1030 39.8564 1029.59 38.2851 1029.59 36.5171V24.6475H1036.03V36.433C1036.03 37.1344 1036.14 37.7378 1036.37 38.2429C1036.62 38.748 1036.99 39.1409 1037.46 39.4215C1037.94 39.7021 1038.52 39.8423 1039.19 39.8423C1040.14 39.8423 1040.9 39.5477 1041.46 38.9584C1042.02 38.3411 1042.3 37.4993 1042.3 36.433V24.6475H1048.74V36.4751C1048.74 38.271 1048.34 39.8564 1047.52 41.2313C1046.71 42.5783 1045.59 43.6446 1044.16 44.4303C1042.72 45.1879 1041.07 45.5667 1039.19 45.5667ZM1051.95 24.6474H1058.38V26.1593C1058.81 25.7846 1059.29 25.463 1059.82 25.1945C1061.02 24.5492 1062.38 24.2264 1063.9 24.2264C1065.33 24.2264 1066.61 24.5492 1067.73 25.1945C1068.57 25.6651 1069.28 26.27 1069.87 27.0091C1070.49 26.3025 1071.23 25.7257 1072.07 25.2788C1073.36 24.5772 1074.8 24.2264 1076.4 24.2264C1077.97 24.2264 1079.36 24.5631 1080.57 25.2367C1081.8 25.882 1082.77 26.822 1083.47 28.0567C1084.2 29.2634 1084.57 30.7226 1084.57 32.4342V45.1037H1078.13V33.1498C1078.13 32.1116 1077.8 31.3118 1077.16 30.7506C1076.54 30.1613 1075.77 29.8666 1074.84 29.8666C1074.2 29.8666 1073.62 30.0069 1073.12 30.2876C1072.61 30.5401 1072.21 30.9049 1071.9 31.382C1071.62 31.859 1071.48 32.4483 1071.48 33.1498V45.1037H1065.04V33.1498C1065.04 32.1116 1064.71 31.3118 1064.07 30.7506C1063.45 30.1613 1062.68 29.8666 1061.75 29.8666C1061.11 29.8666 1060.53 30.0069 1060.03 30.2876C1059.52 30.5401 1059.11 30.9049 1058.81 31.382C1058.53 31.859 1058.38 32.4483 1058.38 33.1498V45.1037H1051.95V24.6474ZM1265.68 43.9372H1284.34V38.3159H1272.31V17.1419H1265.68V43.9372ZM1291.35 34.3808C1291.35 37.8661 1292.74 40.1896 1295.4 40.1896C1298.06 40.1896 1299.48 37.8661 1299.48 34.3808C1299.48 30.8956 1298.06 28.5346 1295.4 28.5346C1292.74 28.5346 1291.35 30.8956 1291.35 34.3808ZM1305.67 34.3808C1305.67 40.1521 1301.62 44.5368 1295.44 44.5368C1289.29 44.5368 1285.17 40.1521 1285.17 34.3808C1285.17 28.6095 1289.29 24.2248 1295.44 24.2248C1301.62 24.2248 1305.67 28.6095 1305.67 34.3808ZM1316.37 50.5705C1319.22 50.5705 1321.73 49.9334 1323.42 48.4343C1324.95 47.0477 1325.97 44.9491 1325.97 42.0634V24.7496H1320.12V26.8107H1320.04C1318.92 25.1993 1317.2 24.1874 1314.65 24.1874C1309.89 24.1874 1306.59 28.1599 1306.59 33.7813C1306.59 39.665 1310.6 42.8879 1314.91 42.8879C1317.23 42.8879 1318.69 41.951 1319.82 40.6768H1319.97V42.5881C1319.97 44.9116 1318.88 46.2607 1316.3 46.2607C1314.27 46.2607 1313.26 45.3988 1312.92 44.3869H1307C1307.6 48.3969 1311.09 50.5705 1316.37 50.5705ZM1312.55 33.5939C1312.55 30.6708 1314.05 28.797 1316.33 28.797C1318.88 28.797 1320.23 30.9706 1320.23 33.5564C1320.23 36.2547 1318.99 38.3533 1316.33 38.3533C1314.05 38.3533 1312.55 36.4795 1312.55 33.5939ZM1333.94 34.3808C1333.94 37.8661 1335.33 40.1896 1337.99 40.1896C1340.65 40.1896 1342.07 37.8661 1342.07 34.3808C1342.07 30.8956 1340.65 28.5346 1337.99 28.5346C1335.33 28.5346 1333.94 30.8956 1333.94 34.3808ZM1348.25 34.3808C1348.25 40.1521 1344.21 44.5368 1338.02 44.5368C1331.88 44.5368 1327.76 40.1521 1327.76 34.3808C1327.76 28.6095 1331.88 24.2248 1338.02 24.2248C1344.21 24.2248 1348.25 28.6095 1348.25 34.3808ZM1350.04 43.9372H1356.15V24.7496H1350.04V43.9372ZM1350.04 22.0888H1356.15V17.1419H1350.04V22.0888ZM1364.91 50.2707H1358.8V24.7496H1364.64V27.0731H1364.76C1366.07 25.3492 1367.94 24.1874 1370.57 24.1874C1375.66 24.1874 1378.77 28.5721 1378.77 34.3434C1378.77 40.5644 1375.44 44.5368 1370.42 44.5368C1367.94 44.5368 1366.18 43.5625 1364.98 41.951H1364.91V50.2707ZM1364.72 34.5682C1364.72 37.6788 1366.22 39.8149 1368.84 39.8149C1371.16 39.8149 1372.59 37.8287 1372.59 34.5682C1372.59 31.2704 1371.35 29.0968 1368.73 29.0968C1366.07 29.0968 1364.72 31.4577 1364.72 34.5682ZM1388.72 44.5368C1393.74 44.5368 1397.45 42.3632 1397.45 38.1659C1397.45 33.2566 1393.48 32.3946 1390.1 31.8325C1389.8 31.777 1389.51 31.7255 1389.22 31.6753C1387.16 31.3188 1385.49 31.0289 1385.49 29.8463C1385.49 28.6471 1386.66 28.0849 1388.16 28.0849C1389.84 28.0849 1391 28.6096 1391.23 30.3335H1396.85C1396.55 26.5484 1393.63 24.1874 1388.19 24.1874C1383.66 24.1874 1379.91 26.2861 1379.91 30.3335C1379.91 34.8306 1383.47 35.73 1386.81 36.2921C1387.07 36.3391 1387.34 36.3833 1387.6 36.4266C1389.82 36.7978 1391.68 37.1094 1391.68 38.6531C1391.68 39.8898 1390.52 40.5644 1388.68 40.5644C1386.66 40.5644 1385.38 39.6275 1385.16 37.7162H1379.39C1379.57 41.951 1383.1 44.5368 1388.72 44.5368ZM1411.48 41.5763C1410.09 43.4501 1408.41 44.4994 1405.75 44.4994C1401.33 44.4994 1399 41.6138 1399 37.3415V24.7496H1405.07V36.0674C1405.07 38.166 1406.01 39.3278 1407.96 39.3278C1410.06 39.3278 1411.33 37.7538 1411.33 35.4677V24.7496H1417.44V43.9373H1411.59V41.5763H1411.48ZM1420.1 43.9372H1426.2V33.1816C1426.2 30.8956 1427.33 29.2841 1429.24 29.2841C1431.08 29.2841 1431.94 30.4834 1431.94 32.5445V43.9372H1438.05V33.1816C1438.05 30.8956 1439.13 29.2841 1441.08 29.2841C1442.92 29.2841 1443.78 30.4834 1443.78 32.5445V43.9372H1449.89V31.4577C1449.89 27.148 1447.72 24.1874 1443.37 24.1874C1440.9 24.1874 1438.83 25.2367 1437.33 27.5602H1437.26C1436.29 25.4991 1434.37 24.1874 1431.86 24.1874C1429.09 24.1874 1427.25 25.4991 1426.05 27.4853H1425.94V24.7496H1420.1V43.9372Z" fill="url(#paint0_radial_0_191)"/>
<defs>
<radialGradient id="paint0_radial_0_191" cx="0" cy="0" r="1" gradientUnits="userSpaceOnUse" gradientTransform="translate(725 31.9999) scale(725 31.5123)">
<stop stop-color="#A4E2F7"/>
<stop offset="1" stop-color="#A4E2F7" stop-opacity="0"/>
</radialGradient>
</defs>
</svg>
