<svg width="21" height="20" viewBox="0 0 21 20" fill="none" xmlns="http://www.w3.org/2000/svg">
<path d="M16 20.0001H6V7.00012L13 0.00012207L14.25 1.25012C14.3667 1.36679 14.4625 1.52512 14.5375 1.72512C14.6125 1.92512 14.65 2.11679 14.65 2.30012V2.65012L13.55 7.00012H19C19.5333 7.00012 20 7.20012 20.4 7.60012C20.8 8.00012 21 8.46679 21 9.00012V11.0001C21 11.1168 20.9875 11.2418 20.9625 11.3751C20.9375 11.5085 20.9 11.6335 20.85 11.7501L17.85 18.8001C17.7 19.1335 17.45 19.4168 17.1 19.6501C16.75 19.8835 16.3833 20.0001 16 20.0001ZM4 7.00012V20.0001H0V7.00012H4Z" fill="#A4E2F7"/>
</svg>
