<svg width="112" height="88" viewBox="0 0 112 88" fill="none" xmlns="http://www.w3.org/2000/svg">
<path d="M4.91201 43.1556C17.2854 81.19 37.2033 83.5047 45.6159 79.9077C61.0339 65.6929 77.5034 70.523 82.2042 71.6848C104.255 61.1233 102.256 43.353 100.653 21.6385C98.14 -4.56952 87.068 1.01007 83.0626 8.89617L74.4826 27.5201C63.8823 19.2551 58.6057 27.7894 57.2925 33.0897L49.9778 34.7336C41.0095 25.8287 34.0775 32.6194 31.7325 37.1279C28.8904 34.8658 22.3067 27.6116 14.428 23.9537C-1.96735 16.3419 2.00459 34.2185 4.91201 43.1556Z" stroke="white" stroke-width="4"/>
<path d="M77.4348 40.6261L81.0958 55.5605" stroke="white" stroke-width="5" stroke-miterlimit="10"/>
<path d="M86.7332 46.2626L71.7983 49.9233" stroke="white" stroke-width="5" stroke-miterlimit="10"/>
<path d="M44.2539 55.9616C43.2639 51.5565 38.876 48.779 34.4709 49.769C30.0658 50.759 27.2884 55.1475 28.2783 59.552C29.2683 63.957 33.6562 66.7346 38.0613 65.7446C42.4664 64.7546 45.2439 60.3666 44.2539 55.9616ZM41.2161 56.6449C41.8293 59.3734 40.1077 62.0933 37.3786 62.7067C34.6494 63.32 31.9295 61.5983 31.3163 58.8698C30.703 56.1407 32.4247 53.4208 35.1538 52.8074C37.8829 52.1941 40.6028 53.9158 41.2161 56.6449Z" fill="white" stroke="white"/>
<path d="M55.9519 41.0559L55.5294 40.7884L55.262 41.2109L46.5003 55.0526L46.2329 55.475L46.6554 55.7425L60.497 64.5042L60.9195 64.7716L61.1869 64.3491L69.9486 50.5075L70.216 50.085L69.7935 49.8176L55.9519 41.0559ZM56.538 45.276L65.7285 51.0935L59.9109 60.284L50.7204 54.4665L56.538 45.276Z" fill="white" stroke="white"/>
</svg>
